/* XPM */
static char * ok_xpm[] = {
"24 24 148 2",
"  	c None",
". 	c #000000",
"+ 	c #FFFFFF",
"@ 	c #FCFCFC",
"# 	c #FBFBFB",
"$ 	c #AFAFAF",
"% 	c #595959",
"& 	c #202020",
"* 	c #030303",
"= 	c #1F1F1F",
"- 	c #545454",
"; 	c #A5A5A5",
"> 	c #F3F3F3",
", 	c #F4F4F4",
"' 	c #F6F6F6",
") 	c #CBCBCB",
"! 	c #3D3D3D",
"~ 	c #233705",
"{ 	c #569600",
"] 	c #80D800",
"^ 	c #94F900",
"/ 	c #97F900",
"( 	c #88D800",
"_ 	c #5E9600",
": 	c #243703",
"< 	c #373737",
"[ 	c #B8B8B8",
"} 	c #EEEEEE",
"| 	c #92FE00",
"1 	c #97FE00",
"2 	c #9BFE00",
"3 	c #A0FE00",
"4 	c #A4FE00",
"5 	c #639600",
"6 	c #989898",
"7 	c #EAEAEA",
"8 	c #F0F0F0",
"9 	c #F5F5F5",
"0 	c #69B700",
"a 	c #A8FE00",
"b 	c #7CB700",
"c 	c #020202",
"d 	c #ABABAB",
"e 	c #E7E7E7",
"f 	c #FDFDFD",
"g 	c #3C3C3C",
"h 	c #4B790D",
"i 	c #ADFE00",
"j 	c #689600",
"k 	c #2C2C2C",
"l 	c #D4D4D4",
"m 	c #E9E9E9",
"n 	c #F1F1F1",
"o 	c #AEAEAE",
"p 	c #8AE900",
"q 	c #8EE900",
"r 	c #92E900",
"s 	c #96E900",
"t 	c #B1FE00",
"u 	c #273601",
"v 	c #838383",
"w 	c #DEDEDE",
"x 	c #ECECEC",
"y 	c #585858",
"z 	c #CDFE85",
"A 	c #F5FEE6",
"B 	c #BAFE47",
"C 	c #BDFE47",
"D 	c #F6FEE6",
"E 	c #D7FE8B",
"F 	c #9AE900",
"G 	c #B6FE00",
"H 	c #6B9600",
"I 	c #3B3B3B",
"J 	c #CFCFCF",
"K 	c #9EE900",
"L 	c #BAFE00",
"M 	c #9ED800",
"N 	c #131313",
"O 	c #C0C0C0",
"P 	c #E1E1E1",
"Q 	c #0F1894",
"R 	c #101894",
"S 	c #BAF900",
"T 	c #B5B5B5",
"U 	c #DDDDDD",
"V 	c #101847",
"W 	c #A2E900",
"X 	c #BEFE00",
"Y 	c #1E1E1E",
"Z 	c #94DA00",
"` 	c #A1D800",
" .	c #121212",
"..	c #DFDFDF",
"+.	c #515151",
"@.	c #101800",
"#.	c #111800",
"$.	c #709600",
"%.	c #333333",
"&.	c #BDBDBD",
"*.	c #E2E2E2",
"=.	c #9E9E9E",
"-.	c #243603",
";.	c #283501",
">.	c #6F6F6F",
",.	c #C6C6C6",
"'.	c #EDEDED",
").	c #343434",
"!.	c #F7FEE6",
"~.	c #222222",
"{.	c #D7D7D7",
"].	c #B4B4B4",
"^.	c #1F2D00",
"/.	c #89B700",
"(.	c #858585",
"_.	c #C9C9C9",
":.	c #E6E6E6",
"<.	c #959595",
"[.	c #707070",
"}.	c #C2C2C2",
"|.	c #DBDBDB",
"1.	c #F8F8F8",
"2.	c #A9A9A9",
"3.	c #2E2E2E",
"4.	c #283602",
"5.	c #6E9600",
"6.	c #232323",
"7.	c #878787",
"8.	c #C1C1C1",
"9.	c #DADADA",
"0.	c #EBEBEB",
"a.	c #F9F9F9",
"b.	c #D5D5D5",
"c.	c #888888",
"d.	c #404040",
"e.	c #151515",
"f.	c #363636",
"g.	c #737373",
"h.	c #FAFAFA",
"i.	c #D2D2D2",
"j.	c #C4C4C4",
"k.	c #BFBFBF",
"l.	c #CECECE",
"m.	c #DCDCDC",
"n.	c #E5E5E5",
"o.	c #F2F2F2",
"p.	c #E4E4E4",
"q.	c #E3E3E3",
". . . . . . . . . . . . . . . . . . . . . . . . ",
". + + + + + + + + + + + + + + + + + + + + + + . ",
". + + + + + + + + + + + @ # # # # # @ + + + + . ",
". + + + + + + + $ % & * * = - ; > , ' # @ + + . ",
". + + + + + ) ! ~ { ] ^ / ( _ : < [ } > ' # + . ",
". + + + + $ * { | 1 1 2 3 3 4 4 5 * 6 7 8 9 # . ",
". + + + ) * 0 | 1 1 2 3 3 4 4 a a b c d e 8 9 . ",
". + + f g h | 1 1 2 3 3 4 4 a a i i j k l m n . ",
". + + o ~ | p p q 3 r s s a a i i t t u v w x . ",
". + f y { p z A B r C D E F i i t t G H I J e . ",
". + # = ] p A A A s D D D K i t t G L M N O P . ",
". + # * ^ q A Q D s D R D K t t G L L S c T U . ",
". + # * / r A V D F D V D W t G L L X S c T U . ",
". + # Y ( r s s F a K Z W W G L L X X `  .[ ... ",
". + # +._ 4 @.a a i i t #.G L L X X X $.%.&.*.. ",
". + # =.-.4 a @.@.@.#.#.G L L X X X X ;.>.,.e . ",
". + f '.).5 a i D !.!.H L L X X X X $.~.T {.'.. ",
". + + ' ].* b i j ^.H L L X X X X /.c (._.:.> . ",
". + + f x <.c j t G L L X X X X $.c [.}.|.n # . ",
". + + + 1.e 2.3.4.5.M S S ` $.;.6.7.8.9.0.a.+ . ",
". + + + + 1.e b.c.d.e.c c N f.g.[ _.U 8 h.+ + . ",
". + + + + + 1.0.*.i._.j.k.k.}.l.m.n.o.f + + + . ",
". + + + + + + h.9 0.n.p.P *.q.m , 1.f + + + + . ",
". . . . . . . . . . . . . . . . . . . . . . . . "};
