/* XPM */
static char * wrong_xpm[] = {
"24 24 158 2",
"  	c None",
". 	c #000000",
"+ 	c #FFFFFF",
"@ 	c #FCFCFC",
"# 	c #FBFBFB",
"$ 	c #AFAFAF",
"% 	c #595959",
"& 	c #202020",
"* 	c #030303",
"= 	c #1F1F1F",
"- 	c #545454",
"; 	c #A5A5A5",
"> 	c #F3F3F3",
", 	c #F4F4F4",
"' 	c #F6F6F6",
") 	c #CBCBCB",
"! 	c #3D3D3D",
"~ 	c #370F05",
"{ 	c #971E00",
"] 	c #D92B00",
"^ 	c #FA3100",
"/ 	c #FA3000",
"( 	c #D92800",
"_ 	c #971B00",
": 	c #370D04",
"< 	c #373737",
"[ 	c #B8B8B8",
"} 	c #EEEEEE",
"| 	c #971F00",
"1 	c #FF3400",
"2 	c #FF3300",
"3 	c #FF3200",
"4 	c #FF3100",
"5 	c #FF3000",
"6 	c #FF2F00",
"7 	c #FF2E00",
"8 	c #FF2D00",
"9 	c #971A00",
"0 	c #989898",
"a 	c #EAEAEA",
"b 	c #F0F0F0",
"c 	c #F5F5F5",
"d 	c #B82600",
"e 	c #FF2C00",
"f 	c #FF2B00",
"g 	c #B81D00",
"h 	c #020202",
"i 	c #ABABAB",
"j 	c #E7E7E7",
"k 	c #FDFDFD",
"l 	c #3C3C3C",
"m 	c #7A230D",
"n 	c #FF2900",
"o 	c #FF2800",
"p 	c #971700",
"q 	c #2C2C2C",
"r 	c #D4D4D4",
"s 	c #E9E9E9",
"t 	c #F1F1F1",
"u 	c #AEAEAE",
"v 	c #EA2E00",
"w 	c #EA2D00",
"x 	c #EA2C00",
"y 	c #EA2B00",
"z 	c #EA2A00",
"A 	c #EA2900",
"B 	c #FF2700",
"C 	c #FF2600",
"D 	c #360902",
"E 	c #838383",
"F 	c #DEDEDE",
"G 	c #ECECEC",
"H 	c #585858",
"I 	c #FF9C85",
"J 	c #FFEAE6",
"K 	c #FF6947",
"L 	c #FF6847",
"M 	c #FF9F8B",
"N 	c #EA2700",
"O 	c #FF2500",
"P 	c #971500",
"Q 	c #3B3B3B",
"R 	c #CFCFCF",
"S 	c #EA2500",
"T 	c #FF2400",
"U 	c #D91D00",
"V 	c #131313",
"W 	c #C0C0C0",
"X 	c #E1E1E1",
"Y 	c #190494",
"Z 	c #EA2400",
"` 	c #FF2300",
" .	c #FA2100",
"..	c #B5B5B5",
"+.	c #DDDDDD",
"@.	c #190447",
"#.	c #EA2800",
"$.	c #FFE9E6",
"%.	c #EA2300",
"&.	c #FF2200",
"*.	c #1E1E1E",
"=.	c #DB2200",
"-.	c #EA2200",
";.	c #D91C00",
">.	c #121212",
",.	c #DFDFDF",
"'.	c #515151",
").	c #FE2500",
"!.	c #971400",
"~.	c #333333",
"{.	c #BDBDBD",
"].	c #E2E2E2",
"^.	c #9E9E9E",
"/.	c #370C03",
"(.	c #190400",
"_.	c #190300",
":.	c #360801",
"<.	c #6F6F6F",
"[.	c #C6C6C6",
"}.	c #EDEDED",
"|.	c #343434",
"1.	c #FC2800",
"2.	c #222222",
"3.	c #D7D7D7",
"4.	c #B4B4B4",
"5.	c #B81800",
"6.	c #858585",
"7.	c #C9C9C9",
"8.	c #E6E6E6",
"9.	c #959595",
"0.	c #707070",
"a.	c #C2C2C2",
"b.	c #DBDBDB",
"c.	c #F8F8F8",
"d.	c #A9A9A9",
"e.	c #2E2E2E",
"f.	c #232323",
"g.	c #878787",
"h.	c #C1C1C1",
"i.	c #DADADA",
"j.	c #EBEBEB",
"k.	c #F9F9F9",
"l.	c #D5D5D5",
"m.	c #888888",
"n.	c #404040",
"o.	c #151515",
"p.	c #363636",
"q.	c #737373",
"r.	c #FAFAFA",
"s.	c #D2D2D2",
"t.	c #C4C4C4",
"u.	c #BFBFBF",
"v.	c #CECECE",
"w.	c #DCDCDC",
"x.	c #E5E5E5",
"y.	c #F2F2F2",
"z.	c #E4E4E4",
"A.	c #E3E3E3",
". . . . . . . . . . . . . . . . . . . . . . . . ",
". + + + + + + + + + + + + + + + + + + + + + + . ",
". + + + + + + + + + + + @ # # # # # @ + + + + . ",
". + + + + + + + $ % & * * = - ; > , ' # @ + + . ",
". + + + + + ) ! ~ { ] ^ / ( _ : < [ } > ' # + . ",
". + + + + $ * | 1 2 3 4 5 6 7 8 9 * 0 a b c # . ",
". + + + ) * d 1 2 3 4 5 6 7 8 e f g h i j b c . ",
". + + k l m 1 2 3 4 5 6 7 8 e f n o p q r s t . ",
". + + u ~ 1 v w x 5 y z A e f n o B C D E F G . ",
". + k H { v I J K y L J M N n o B C O P Q R j . ",
". + # = ] w J J J z J J J S o B C O T U V W X . ",
". + # * ^ x J Y J A J Y J Z B C O T `  .h ..+.. ",
". + # * / x J @.J #.J @.$.%.C O T ` &. .h ..+.. ",
". + # *.( y z A #.f S =.%.-.O T ` &.&.;.>.[ ,.. ",
". + # '._ 7 8 e f n o B ).O T ` &.&.&.!.~.{.].. ",
". + # ^./.8 e (.(._._._.O T ` &.&.&.&.:.<.[.j . ",
". + k }.|.9 (.1.o B C O _.` &.&.&.&.!.2...3.}.. ",
". + + ' 4.* g o B C O T ` &.&.&.&.5.h 6.7.8.> . ",
". + + k G 9.h p C O T ` &.&.&.&.!.h 0.a.b.t # . ",
". + + + c.j d.e.D P U  . .;.!.:.f.g.h.i.j.k.+ . ",
". + + + + c.j l.m.n.o.h h V p.q.[ 7.+.b r.+ + . ",
". + + + + + c.j.].s.7.t.u.u.a.v.w.x.y.k + + + . ",
". + + + + + + r.c j.x.z.X ].A.s , c.k + + + + . ",
". . . . . . . . . . . . . . . . . . . . . . . . "};
